<?xml version="1.0" encoding="UTF-8" standalone="no"?>
<svg
   xmlns:dc="http://purl.org/dc/elements/1.1/"
   xmlns:cc="http://creativecommons.org/ns#"
   xmlns:rdf="http://www.w3.org/1999/02/22-rdf-syntax-ns#"
   xmlns:svg="http://www.w3.org/2000/svg"
   xmlns="http://www.w3.org/2000/svg"
   xmlns:sodipodi="http://sodipodi.sourceforge.net/DTD/sodipodi-0.dtd"
   xmlns:inkscape="http://www.inkscape.org/namespaces/inkscape"
   version="1.0"
   width="439.000000pt"
   height="439.000000pt"
   viewBox="0 0 439.000000 439.000000"
   preserveAspectRatio="xMidYMid meet"
   id="svg8"
   sodipodi:docname="africa.svg"
   inkscape:version="0.92.4 (5da689c313, 2019-01-14)">
  <defs
     id="defs12" />
  <sodipodi:namedview
     pagecolor="#ffffff"
     bordercolor="#666666"
     borderopacity="1"
     objecttolerance="10"
     gridtolerance="10"
     guidetolerance="10"
     inkscape:pageopacity="0"
     inkscape:pageshadow="2"
     inkscape:window-width="1920"
     inkscape:window-height="1017"
     id="namedview10"
     showgrid="false"
     inkscape:zoom="1.1403909"
     inkscape:cx="275.80702"
     inkscape:cy="44.351594"
     inkscape:window-x="-8"
     inkscape:window-y="-8"
     inkscape:window-maximized="1"
     inkscape:current-layer="svg8" />
  <metadata
     id="metadata2">
<rdf:RDF>
  <cc:Work
     rdf:about="">
    <dc:format>image/svg+xml</dc:format>
    <dc:type
       rdf:resource="http://purl.org/dc/dcmitype/StillImage" />
    <dc:title></dc:title>
  </cc:Work>
</rdf:RDF>
</metadata>
  <g
     transform="translate(0.000000,439.000000) scale(0.100000,-0.100000)"
     fill="#000000"
     stroke="none"
     id="g6"
     style="fill:#ffffff;fill-opacity:1">
    <path
       d="M1855 4370 c-231 -35 -406 -90 -620 -195 -161 -79 -318 -177 -429 -269 -38 -31 -99 -77 -135 -101 -85 -57 -153 -127 -185 -192 -15 -28 -64 -107 -109 -175 -194 -287 -309 -581 -357 -910 -22 -150 -27 -454 -10 -598 67 -548 347 -1068 761 -1411 434 -361 948 -537 1504 -516 348 13 645 91 935 243 584 308 1009 869 1134 1496 149 744 -71 1486 -594 2008 -352 352 -799 570 -1290 630 -137 16 -467 11 -605 -10z m-6 -477 c15 15 98 -1 106 -21 4 -10 0 -21 -8 -26 -13 -8 -13 -13 -1 -31 13 -20 12 -25 -7 -48 -11 -15 -16 -27 -10 -27 6 0 11 -5 11 -11 0 -19 33 -38 64 -39 52 0 107 -22 117 -46 5 -16 21 -26 51 -34 24 -6 57 -17 75 -26 41 -21 55 -11 47 30 -5 28 -1 37 21 55 33 25 106 29 129 6 8 -8 25 -15 38 -15 13 0 33 -7 44 -15 12 -8 24 -12 26 -9 3 3 37 -2 76 -11 62 -14 74 -15 94 -2 35 22 100 29 122 12 16 -12 23 -12 47 1 l29 14 26 -51 c21 -42 25 -60 19 -95 -3 -24 -13 -48 -21 -52 -14 -8 -11 -17 17 -63 18 -30 46 -69 63 -87 24 -25 28 -35 17 -41 -10 -6 -5 -14 17 -30 38 -27 60 -69 68 -132 5 -40 12 -53 34 -66 30 -17 60 -61 60 -87 0 -19 44 -65 83 -86 48 -28 139 -122 134 -141 -3 -10 7 -29 24 -45 28 -27 31 -27 57 -12 15 8 33 13 40 11 8 -3 24 -1 35 5 12 6 45 16 72 23 28 6 62 18 77 25 36 18 55 9 61 -30 6 -35 -15 -127 -36 -160 -8 -12 -22 -45 -32 -75 -23 -70 -90 -164 -156 -221 -123 -105 -265 -261 -303 -332 -34 -66 -35 -72 -20 -89 11 -13 17 -38 18 -83 1 -51 6 -71 25 -97 21 -29 23 -35 12 -66 -7 -18 -11 -63 -10 -101 3 -112 -31 -158 -149 -202 -18 -7 -42 -26 -53 -41 -11 -16 -26 -29 -32 -29 -7 -1 -22 -9 -34 -19 -18 -15 -21 -25 -16 -57 3 -22 10 -44 14 -50 5 -6 4 -25 -1 -44 -5 -18 -7 -37 -4 -42 12 -18 -27 -56 -74 -73 -27 -10 -49 -23 -48 -29 0 -6 -5 -34 -12 -63 -13 -48 -23 -60 -153 -180 -146 -133 -188 -158 -254 -145 -15 2 -68 -1 -118 -8 l-91 -12 -28 31 c-33 36 -46 80 -29 91 15 9 -57 160 -95 201 -24 25 -45 101 -63 224 -4 31 -24 79 -51 125 -67 115 -80 143 -80 165 0 42 48 197 68 218 31 33 37 71 17 113 -10 22 -14 46 -10 61 4 17 -2 43 -18 77 -14 28 -31 66 -38 84 -7 19 -41 65 -75 103 -66 71 -84 109 -65 133 7 8 14 34 15 58 2 23 9 59 15 78 10 31 8 37 -17 63 -25 27 -30 29 -87 23 -68 -7 -76 -3 -99 41 -22 43 -50 57 -103 49 -50 -7 -141 -35 -195 -62 -31 -14 -42 -15 -63 -6 -37 17 -80 15 -160 -7 -83 -23 -108 -16 -189 53 -28 23 -69 54 -92 68 -45 29 -74 67 -74 97 0 20 -12 34 -107 133 -42 44 -45 50 -40 86 5 27 2 45 -9 61 -15 21 -15 24 8 49 36 39 61 116 55 165 -3 22 -1 50 5 60 8 16 7 22 -6 29 -9 5 -16 20 -16 32 0 25 53 110 100 161 15 17 31 40 35 53 3 12 22 34 40 48 19 14 37 34 40 44 3 10 24 23 49 30 62 17 116 64 116 100 0 43 58 120 113 149 26 14 61 43 78 64 31 38 63 48 72 24 3 -9 30 -17 68 -21 51 -5 65 -3 72 9 4 8 19 15 32 15 13 0 26 4 29 9 3 5 50 14 103 20 138 16 153 17 200 10 23 -3 47 -1 52 4z m1863 -2380 c10 -11 19 -49 23 -100 6 -71 5 -84 -9 -89 -9 -3 -16 -14 -16 -23 0 -9 -4 -21 -9 -26 -5 -6 -16 -35 -26 -65 -10 -30 -48 -119 -85 -196 -65 -136 -69 -142 -101 -146 -19 -3 -41 -8 -49 -11 -30 -13 -63 27 -73 89 -14 99 -11 122 22 160 38 43 45 70 32 122 -10 34 -8 46 6 76 10 20 23 36 29 36 6 0 17 6 24 14 6 8 18 12 25 10 26 -10 104 52 105 84 0 6 5 12 11 12 15 0 39 26 39 43 0 31 29 36 52 10z"
       id="path4"
       style="fill:#ffffff;fill-opacity:1" />
  </g>
</svg>
