<?xml version="1.0" encoding="UTF-8" standalone="no"?>
<svg
   xmlns:dc="http://purl.org/dc/elements/1.1/"
   xmlns:cc="http://creativecommons.org/ns#"
   xmlns:rdf="http://www.w3.org/1999/02/22-rdf-syntax-ns#"
   xmlns:svg="http://www.w3.org/2000/svg"
   xmlns="http://www.w3.org/2000/svg"
   xmlns:sodipodi="http://sodipodi.sourceforge.net/DTD/sodipodi-0.dtd"
   xmlns:inkscape="http://www.inkscape.org/namespaces/inkscape"
   version="1.0"
   width="439.000000pt"
   height="439.000000pt"
   viewBox="0 0 439.000000 439.000000"
   preserveAspectRatio="xMidYMid meet"
   id="svg8"
   sodipodi:docname="americas.svg"
   inkscape:version="0.92.4 (5da689c313, 2019-01-14)">
  <defs
     id="defs12" />
  <sodipodi:namedview
     pagecolor="#ffffff"
     bordercolor="#666666"
     borderopacity="1"
     objecttolerance="10"
     gridtolerance="10"
     guidetolerance="10"
     inkscape:pageopacity="0"
     inkscape:pageshadow="2"
     inkscape:window-width="716"
     inkscape:window-height="480"
     id="namedview10"
     showgrid="false"
     inkscape:zoom="0.40318907"
     inkscape:cx="292.66667"
     inkscape:cy="292.66667"
     inkscape:window-x="0"
     inkscape:window-y="0"
     inkscape:window-maximized="0"
     inkscape:current-layer="svg8" />
  <metadata
     id="metadata2">
<rdf:RDF>
  <cc:Work
     rdf:about="">
    <dc:format>image/svg+xml</dc:format>
    <dc:type
       rdf:resource="http://purl.org/dc/dcmitype/StillImage" />
    <dc:title></dc:title>
  </cc:Work>
</rdf:RDF>
</metadata>
  <g
     transform="translate(0.000000,439.000000) scale(0.100000,-0.100000)"
     fill="#000000"
     stroke="none"
     id="g6"
     style="fill:#ffffff;fill-opacity:1">
    <path
       d="M1855 4370 c-231 -35 -406 -90 -620 -195 -161 -79 -318 -177 -429 -269 -38 -31 -99 -77 -135 -101 -85 -57 -153 -127 -185 -192 -15 -28 -64 -107 -109 -175 -194 -287 -309 -581 -357 -910 -22 -150 -27 -454 -10 -598 67 -548 347 -1068 761 -1411 434 -361 948 -537 1504 -516 348 13 645 91 935 243 584 308 1009 869 1134 1496 149 744 -71 1486 -594 2008 -352 352 -799 570 -1290 630 -137 16 -467 11 -605 -10z m593 -539 c-2 -22 7 -30 46 -40 25 -6 48 -15 51 -21 3 -5 22 -7 41 -4 26 4 34 2 34 -10 0 -11 9 -16 29 -16 32 0 84 -23 74 -33 -3 -4 -1 -7 5 -7 5 0 13 6 16 13 3 6 3 2 0 -11 -3 -13 1 -33 10 -47 18 -27 24 -29 46 -15 13 8 12 11 -5 24 -11 8 -16 18 -12 23 5 4 14 1 21 -8 6 -9 20 -19 31 -22 19 -5 19 -5 -2 -12 -13 -4 -23 -14 -23 -22 0 -9 6 -13 15 -9 10 4 15 -1 15 -14 0 -15 7 -20 26 -20 14 0 23 4 20 8 -8 13 11 35 23 28 18 -12 34 -86 21 -101 -9 -11 -8 -19 3 -35 7 -11 16 -18 19 -15 2 3 5 -1 6 -7 1 -7 4 -26 8 -42 5 -19 3 -27 -4 -22 -7 4 -7 -4 0 -26 16 -50 24 -63 38 -63 7 0 15 -10 17 -23 4 -31 21 -62 33 -62 5 0 19 -18 30 -40 l20 -40 -25 10 c-22 8 -27 7 -35 -13 -5 -12 -9 -16 -9 -9 -1 6 -10 12 -21 12 -30 0 -102 41 -108 62 -5 21 -28 24 -35 6 -2 -7 -8 0 -12 15 -5 18 -12 26 -21 23 -13 -5 -19 13 -15 38 1 5 -5 4 -13 -3 -12 -10 -17 -8 -27 11 -7 13 -12 23 -11 23 1 0 -1 10 -4 21 -3 12 -18 28 -32 35 -15 8 -29 16 -32 20 -9 9 -66 30 -76 27 -5 -1 -34 14 -65 35 -60 40 -149 62 -149 37 0 -7 -3 -10 -7 -7 -3 4 -12 2 -20 -4 -13 -12 -18 -2 -14 29 1 7 -11 12 -33 12 -29 0 -34 4 -33 20 1 11 5 20 9 20 4 0 8 11 8 25 0 16 -6 25 -15 25 -11 0 -14 7 -9 24 3 15 1 27 -8 32 -9 6 -6 10 12 14 14 4 24 12 23 18 -2 7 4 12 12 12 18 0 18 5 5 31 -6 11 -7 19 -2 19 6 0 12 9 15 20 3 11 10 20 15 20 6 0 8 -9 5 -20 -4 -14 0 -20 11 -20 10 0 16 9 17 23 0 12 3 16 6 9 4 -10 8 -10 19 -1 9 8 11 16 4 28 -6 13 -5 18 5 18 8 0 14 -3 13 -6z m-1148 -351 c3 -3 19 -10 35 -15 21 -7 31 -18 34 -35 1 -14 22 -45 45 -70 23 -25 53 -64 66 -87 24 -44 34 -51 45 -33 3 6 11 10 16 10 6 0 7 -4 4 -10 -3 -5 1 -10 9 -10 9 0 16 6 16 13 1 7 7 4 15 -7 9 -12 21 -17 35 -13 14 3 29 -2 41 -14 10 -10 27 -19 37 -19 9 0 37 -14 61 -30 24 -16 49 -27 55 -23 6 3 2 -4 -9 -16 -16 -19 -17 -24 -5 -31 8 -6 32 -10 53 -10 30 0 39 -5 47 -24 19 -51 39 -39 35 22 -1 17 0 32 2 32 2 0 21 -11 43 -25 41 -26 90 -33 90 -14 0 8 4 9 13 0 11 -9 14 -6 13 12 -1 12 -5 28 -10 35 -12 19 1 27 19 12 12 -10 13 -16 4 -26 -7 -9 -8 -14 -1 -14 5 0 8 -9 5 -20 -4 -14 0 -20 11 -20 9 0 16 7 16 15 0 8 6 25 13 36 10 17 9 23 -1 26 -6 3 -10 9 -6 14 3 5 -2 12 -10 15 -17 7 -23 64 -7 64 16 0 40 -41 34 -59 -4 -9 -2 -13 2 -8 5 4 14 -6 21 -23 12 -28 34 -41 34 -20 0 21 16 9 27 -21 18 -46 37 -32 41 29 2 29 5 52 7 52 2 0 16 -5 30 -12 18 -8 22 -14 13 -19 -10 -7 -10 -11 0 -21 19 -19 15 -48 -7 -48 -12 0 -25 -13 -35 -35 -9 -19 -22 -37 -28 -41 -6 -4 -8 -3 -5 3 6 10 -13 23 -34 23 -21 0 -7 -22 21 -31 17 -6 30 -16 30 -22 0 -19 -55 -45 -84 -40 -34 7 -35 -14 -1 -23 28 -7 31 -16 11 -33 -31 -26 -61 -161 -35 -161 5 0 7 -4 4 -10 -3 -5 3 -10 14 -10 15 0 22 -9 26 -34 7 -34 7 -34 56 -30 27 1 49 -1 49 -5 0 -9 93 -52 107 -50 43 7 62 -3 74 -38 16 -53 75 -106 107 -98 22 5 24 10 19 47 -3 22 -11 45 -19 49 -7 5 -9 9 -4 9 5 0 2 8 -6 18 -24 28 -31 43 -17 40 7 -2 19 11 27 27 8 17 19 32 24 33 14 6 9 22 -8 22 -8 0 -13 4 -10 9 3 5 -10 23 -29 40 -27 23 -35 38 -35 63 0 19 -6 42 -14 53 -7 11 -16 30 -20 41 -6 18 -2 22 30 27 22 4 51 0 75 -10 21 -8 45 -13 53 -10 10 4 13 1 9 -9 -3 -8 5 -27 18 -41 13 -14 18 -23 12 -19 -7 4 -13 2 -13 -4 0 -6 8 -10 18 -8 9 1 22 -1 28 -4 20 -13 47 17 48 54 1 33 2 35 23 25 13 -6 23 -17 23 -25 0 -9 7 -13 20 -9 12 3 20 0 20 -7 0 -7 11 -19 25 -26 13 -7 22 -17 19 -21 -3 -5 7 -11 21 -15 14 -3 25 -10 25 -15 0 -5 14 -6 30 -2 24 4 30 2 30 -12 0 -9 6 -15 13 -12 6 2 11 11 9 18 -2 9 3 7 16 -4 13 -12 21 -14 24 -7 2 6 14 -3 26 -20 l23 -31 -20 -33 c-12 -18 -21 -40 -21 -48 0 -17 -45 -59 -54 -51 -3 4 -6 1 -6 -6 0 -7 -4 -9 -10 -6 -5 3 -10 1 -10 -6 0 -7 -3 -9 -6 -6 -12 12 -65 -28 -71 -53 -3 -14 -14 -42 -24 -62 -11 -21 -19 -52 -18 -70 0 -18 3 -27 6 -21 2 7 4 15 3 19 -1 4 3 10 8 13 6 3 12 12 14 20 4 19 60 77 81 84 21 8 22 -3 2 -29 -18 -24 -19 -36 -2 -32 6 1 25 -10 40 -26 l29 -28 -31 -32 c-17 -18 -31 -36 -31 -42 0 -5 -12 -22 -26 -37 -28 -30 -41 -102 -22 -124 7 -9 7 -13 0 -13 -6 0 -14 -9 -17 -20 -4 -11 -11 -18 -16 -15 -5 4 -12 -1 -15 -9 -3 -9 -10 -14 -14 -11 -12 8 -22 -31 -15 -55 4 -13 1 -22 -9 -26 -9 -3 -16 -10 -16 -16 0 -5 4 -6 10 -3 7 4 7 -2 1 -18 -6 -14 -7 -28 -3 -33 4 -4 1 -4 -6 0 -7 4 -10 12 -7 17 4 5 1 9 -5 9 -7 0 -9 8 -5 21 5 16 3 20 -6 17 -8 -3 -13 -17 -12 -32 1 -14 -2 -24 -8 -21 -5 4 -9 -1 -9 -9 0 -9 6 -16 14 -16 17 0 49 -58 40 -72 -3 -5 2 -16 12 -24 11 -9 13 -13 6 -9 -7 4 -16 -4 -21 -18 -6 -14 -15 -28 -21 -32 -5 -3 -8 -10 -5 -15 3 -4 -2 -10 -10 -14 -20 -7 -95 -124 -95 -148 0 -10 18 -55 40 -99 28 -55 40 -91 38 -114 -2 -31 -4 -33 -18 -20 -9 8 -20 12 -25 8 -4 -5 -5 -3 -1 4 4 7 -3 22 -14 33 -12 12 -23 31 -26 43 -2 12 -12 33 -22 47 -17 22 -27 25 -98 28 -81 3 -184 -14 -184 -30 0 -5 5 -6 11 -3 9 6 5 -2 -18 -44 -1 -2 -13 3 -27 12 -20 14 -34 15 -85 6 -37 -6 -69 -17 -81 -29 -11 -11 -25 -20 -31 -20 -15 0 -39 -26 -32 -34 4 -3 0 -6 -7 -6 -9 0 -11 -11 -7 -42 4 -28 1 -52 -8 -68 -8 -14 -14 -49 -15 -78 0 -47 6 -62 45 -122 58 -91 92 -107 174 -84 80 23 84 26 102 75 19 49 38 65 93 75 36 6 39 5 32 -12 -4 -10 -10 -34 -13 -52 -3 -17 -10 -32 -14 -32 -5 0 -9 -9 -9 -20 0 -11 4 -20 9 -20 5 0 1 -18 -10 -40 -10 -21 -19 -42 -19 -46 0 -6 64 -1 142 12 45 7 84 -1 91 -19 2 -7 1 -39 -5 -71 l-9 -59 38 -39 c44 -45 64 -47 127 -13 26 14 55 25 65 25 22 0 58 -26 49 -36 -5 -4 -17 1 -28 11 -20 18 -77 14 -65 -6 4 -5 1 -8 -7 -7 -8 2 -14 -8 -16 -24 -3 -28 -16 -36 -26 -19 -4 5 -26 9 -50 9 -32 0 -50 6 -66 22 -16 16 -31 21 -54 18 -27 -3 -32 0 -29 13 5 19 -44 62 -60 52 -6 -3 -7 -1 -3 5 4 7 2 12 -3 12 -6 0 -10 6 -9 13 4 16 -49 22 -67 7 -9 -7 -15 -8 -20 0 -3 5 -21 10 -40 10 -19 0 -64 16 -107 38 -69 36 -76 38 -125 29 -42 -8 -64 -6 -121 12 -88 26 -233 93 -251 114 -7 9 -17 14 -22 11 -5 -3 -9 -2 -8 3 1 4 0 13 -1 18 -1 6 -1 25 0 43 1 18 -3 32 -10 32 -6 0 -8 4 -5 10 3 5 -5 21 -19 35 -14 14 -22 25 -19 25 3 0 -2 9 -12 20 -10 11 -22 17 -28 13 -6 -3 -7 -1 -3 5 3 6 -7 26 -24 45 -16 19 -30 39 -30 44 0 6 -9 18 -20 28 -11 10 -20 23 -20 30 0 6 -16 26 -35 45 -20 20 -35 44 -35 57 0 53 -31 99 -62 94 -5 0 -8 3 -8 9 0 5 -4 10 -9 10 -11 0 -12 -26 -5 -78 3 -18 9 -30 15 -27 5 4 8 3 7 -2 -1 -4 19 -51 44 -103 26 -52 49 -108 51 -125 2 -17 10 -30 17 -30 7 0 15 -7 17 -15 4 -13 3 -13 -6 0 -6 8 -11 11 -11 6 0 -5 -7 -3 -15 4 -8 7 -12 16 -9 21 3 5 -2 9 -10 9 -9 0 -16 7 -16 16 0 8 -5 12 -11 8 -8 -5 -8 -1 0 14 16 30 -3 65 -47 87 -21 10 -31 20 -24 22 20 8 14 42 -17 86 -15 23 -34 67 -41 97 -7 30 -19 69 -26 87 -14 32 -57 73 -78 73 -6 0 -12 10 -14 23 -1 13 -8 42 -17 66 -8 24 -12 53 -9 66 4 16 0 26 -13 33 -36 21 -19 160 36 294 20 48 29 84 26 106 -5 36 13 44 36 15 10 -11 10 -14 2 -9 -7 4 -13 2 -13 -3 0 -15 15 -14 29 3 19 22 4 105 -17 101 -10 -1 -17 -11 -16 -24 1 -20 0 -20 -15 -4 -25 27 -42 71 -31 78 6 4 10 1 10 -5 0 -6 5 -8 12 -4 6 4 8 3 5 -4 -4 -5 -4 -17 -1 -26 5 -13 9 -14 21 -5 12 10 10 16 -9 36 -18 19 -23 37 -25 91 -1 37 -7 68 -13 70 -13 5 -13 35 0 48 10 10 -3 84 -21 117 -6 11 -6 17 1 17 5 0 10 12 10 26 0 14 -4 23 -9 20 -5 -4 -7 4 -3 16 3 14 2 19 -6 14 -7 -4 -12 -1 -12 8 0 19 -20 22 -21 4 0 -7 -5 -2 -10 11 -5 14 -7 31 -4 39 3 8 -15 34 -45 63 -33 32 -48 54 -43 64 4 11 -1 18 -17 22 -15 4 -20 11 -17 24 6 23 -9 24 -83 8 -29 -6 -50 -16 -50 -24 0 -17 -34 -25 -67 -16 -18 5 -23 10 -15 15 7 4 10 12 7 17 -3 5 0 6 8 3 21 -8 33 17 15 30 -20 15 -32 53 -18 61 13 8 13 45 0 45 -7 0 -6 8 2 23 7 12 11 25 10 28 0 4 12 13 29 19 23 10 39 10 66 2 30 -9 40 -8 59 6 13 9 24 21 24 26 0 5 -3 7 -6 3 -8 -8 -27 11 -43 42 -8 15 -9 21 -2 17 6 -4 14 0 17 8 9 24 33 19 44 -8 12 -32 28 -40 46 -25 9 7 13 23 10 41 -2 15 -1 28 4 28 4 0 10 8 12 18 4 13 16 17 54 17 27 0 51 -2 54 -5z m999 -162 c-4 -29 2 -38 26 -38 17 0 25 6 25 18 1 15 2 15 13 1 20 -26 55 -41 63 -28 5 8 10 6 16 -5 5 -9 16 -16 24 -16 8 0 12 5 9 11 -4 6 2 5 13 -2 12 -7 26 -23 32 -35 14 -24 118 -58 135 -44 7 6 12 -3 13 -28 2 -30 0 -34 -10 -24 -6 6 -25 12 -40 12 -60 0 -20 -60 47 -72 24 -4 45 -20 38 -30 -2 -5 -17 -8 -34 -8 -32 0 -38 -14 -11 -29 34 -20 -42 -12 -86 9 -45 22 -56 24 -48 12 3 -5 0 -9 -7 -9 -7 0 -20 -4 -29 -8 -13 -5 -18 -3 -18 8 0 8 13 17 28 20 26 5 43 37 20 37 -5 0 -7 12 -5 28 6 42 -7 58 -83 96 -80 41 -80 41 -80 21 0 -9 -10 -15 -26 -15 -14 0 -23 -4 -19 -10 3 -6 -5 -5 -23 1 -16 5 -34 9 -40 7 -5 -2 -11 2 -12 7 0 6 7 12 17 13 31 6 34 17 19 60 -14 39 -14 41 7 45 12 2 23 5 25 6 2 0 2 -5 1 -11z m-423 -38 c8 0 14 -5 14 -11 0 -6 9 -9 20 -6 13 3 20 0 20 -9 0 -8 5 -14 10 -14 6 0 10 9 10 19 0 18 27 37 38 26 3 -3 0 -5 -6 -5 -20 0 -1 -74 25 -96 25 -22 25 -22 4 -29 -22 -7 -29 -25 -9 -25 6 0 8 -3 5 -6 -4 -4 -17 1 -31 9 -22 15 -28 15 -60 2 -19 -8 -39 -15 -44 -15 -18 0 -82 69 -71 76 6 3 16 1 22 -5 14 -14 57 -15 57 -1 0 13 -34 30 -61 30 -22 0 -22 0 -3 15 10 8 14 15 8 15 -7 0 -14 9 -17 20 -3 11 -2 18 1 16 4 -2 16 0 27 4 11 4 22 3 23 -1 2 -5 10 -9 18 -9z"
       id="path4"
       style="fill:#ffffff;fill-opacity:1" />
  </g>
</svg>
