<?xml version="1.0" encoding="UTF-8" standalone="no"?>
<svg
   xmlns:dc="http://purl.org/dc/elements/1.1/"
   xmlns:cc="http://creativecommons.org/ns#"
   xmlns:rdf="http://www.w3.org/1999/02/22-rdf-syntax-ns#"
   xmlns:svg="http://www.w3.org/2000/svg"
   xmlns="http://www.w3.org/2000/svg"
   xmlns:sodipodi="http://sodipodi.sourceforge.net/DTD/sodipodi-0.dtd"
   xmlns:inkscape="http://www.inkscape.org/namespaces/inkscape"
   version="1.0"
   width="439.000000pt"
   height="439.000000pt"
   viewBox="0 0 439.000000 439.000000"
   preserveAspectRatio="xMidYMid meet"
   id="svg8"
   sodipodi:docname="asia.svg"
   inkscape:version="0.92.4 (5da689c313, 2019-01-14)">
  <defs
     id="defs12" />
  <sodipodi:namedview
     pagecolor="#ffffff"
     bordercolor="#666666"
     borderopacity="1"
     objecttolerance="10"
     gridtolerance="10"
     guidetolerance="10"
     inkscape:pageopacity="0"
     inkscape:pageshadow="2"
     inkscape:window-width="960"
     inkscape:window-height="754"
     id="namedview10"
     showgrid="false"
     inkscape:zoom="0.40318907"
     inkscape:cx="292.66667"
     inkscape:cy="292.66667"
     inkscape:window-x="0"
     inkscape:window-y="0"
     inkscape:window-maximized="0"
     inkscape:current-layer="svg8" />
  <metadata
     id="metadata2">
<rdf:RDF>
  <cc:Work
     rdf:about="">
    <dc:format>image/svg+xml</dc:format>
    <dc:type
       rdf:resource="http://purl.org/dc/dcmitype/StillImage" />
    <dc:title></dc:title>
  </cc:Work>
</rdf:RDF>
</metadata>
  <g
     transform="translate(0.000000,439.000000) scale(0.100000,-0.100000)"
     fill="#000000"
     stroke="none"
     id="g6"
     style="fill:#ffffff;fill-opacity:1">
    <path
       d="M1855 4370 c-231 -35 -406 -90 -620 -195 -161 -79 -318 -177 -429 -269 -38 -31 -99 -77 -135 -101 -85 -57 -153 -127 -185 -192 -15 -28 -64 -107 -109 -175 -194 -287 -309 -581 -357 -910 -22 -150 -27 -454 -10 -598 67 -548 347 -1068 761 -1411 434 -361 948 -537 1504 -516 348 13 645 91 935 243 584 308 1009 869 1134 1496 149 744 -71 1486 -594 2008 -352 352 -799 570 -1290 630 -137 16 -467 11 -605 -10z m-84 -916 c17 -8 45 -14 62 -13 18 1 43 1 57 0 23 -1 24 -3 8 -15 -19 -14 -23 -32 -9 -40 5 -3 53 -8 107 -12 54 -3 106 -10 115 -15 25 -13 79 -11 83 4 15 48 12 46 50 29 20 -9 36 -23 36 -32 0 -9 11 -22 23 -27 37 -17 134 -27 141 -15 4 6 22 8 41 5 52 -8 88 4 82 27 -6 25 22 27 84 5 24 -9 56 -13 71 -10 20 5 39 0 65 -16 28 -17 49 -22 95 -21 64 2 156 -19 190 -42 34 -24 243 -23 256 1 14 24 112 11 182 -25 56 -29 175 -105 220 -141 l25 -21 -25 0 c-27 0 -60 -30 -60 -54 0 -10 -17 -14 -65 -14 -75 -1 -85 -5 -85 -38 0 -16 8 -27 23 -33 13 -5 29 -16 36 -25 7 -9 19 -16 27 -16 15 0 21 -42 16 -117 l-4 -51 -84 65 c-97 75 -108 97 -76 154 26 45 28 76 5 101 -20 22 -39 23 -51 2 -7 -12 -15 -14 -33 -8 -44 14 -88 0 -89 -28 0 -5 9 -17 20 -28 l20 -20 -37 0 c-22 0 -49 9 -63 20 -30 23 -56 25 -67 6 -5 -10 -29 -16 -67 -18 l-59 -3 -18 -55 c-24 -75 -24 -80 10 -80 16 0 34 -7 41 -15 7 -8 27 -15 45 -15 40 0 78 -29 95 -72 8 -18 27 -50 42 -70 18 -23 26 -43 22 -50 -5 -7 -11 -40 -15 -73 -8 -62 -28 -90 -62 -81 -24 6 -47 -20 -47 -52 0 -15 -4 -33 -9 -41 -7 -11 4 -26 40 -59 73 -65 77 -78 34 -99 -19 -9 -35 -20 -35 -25 0 -4 -4 -8 -10 -8 -5 0 -10 15 -10 34 0 19 -4 37 -9 40 -5 3 -7 14 -4 24 5 20 -12 38 -42 43 -11 3 -22 15 -25 29 -5 19 -13 25 -35 26 -17 1 -37 -2 -47 -7 -13 -7 -15 -5 -11 11 4 17 0 20 -26 20 -24 0 -31 -4 -31 -19 0 -10 -7 -24 -16 -31 -8 -8 -14 -25 -12 -39 3 -22 8 -26 43 -29 26 -2 43 1 50 12 10 13 13 12 23 -5 7 -10 8 -19 3 -19 -17 0 -41 -31 -41 -54 0 -14 20 -41 56 -75 45 -43 53 -55 43 -67 -9 -11 -8 -18 5 -33 16 -18 16 -21 -3 -60 -12 -22 -21 -51 -21 -63 0 -14 -18 -42 -44 -69 -37 -39 -52 -47 -94 -53 -62 -8 -76 -24 -69 -75 4 -30 1 -41 -10 -46 -22 -8 -26 0 -14 24 7 11 9 32 5 46 -14 54 -114 15 -114 -46 0 -9 29 -49 65 -88 63 -69 65 -72 65 -126 0 -49 -3 -56 -27 -69 -16 -8 -37 -25 -47 -37 -15 -17 -21 -20 -24 -10 -3 8 -29 38 -58 67 -57 58 -104 79 -104 48 0 -10 -5 -33 -12 -51 -10 -27 -10 -38 0 -51 7 -9 16 -26 21 -38 5 -12 28 -36 50 -54 53 -41 73 -80 69 -133 l-3 -41 -37 32 c-26 23 -38 44 -43 72 -4 24 -21 55 -44 82 -36 41 -38 46 -44 134 -3 51 -10 100 -16 110 -5 11 -12 31 -16 47 -6 30 -35 37 -55 12 -20 -24 -32 -13 -36 30 -2 29 -12 47 -34 68 -17 15 -36 27 -44 27 -8 0 -16 16 -20 40 -5 31 -11 40 -26 40 -11 0 -20 -4 -20 -10 0 -5 -17 -12 -37 -16 -47 -8 -73 -21 -73 -36 0 -6 -16 -28 -35 -47 -128 -132 -121 -121 -128 -203 -4 -60 -11 -85 -33 -117 -30 -47 -42 -43 -51 15 -3 21 -14 50 -23 64 -10 14 -23 42 -29 62 -7 20 -19 42 -27 48 -7 7 -14 26 -14 42 0 16 -6 44 -14 63 -8 18 -12 42 -9 53 2 10 -3 26 -12 35 -12 13 -21 14 -40 5 -36 -16 -53 -5 -47 31 4 26 1 31 -17 31 -13 0 -38 18 -60 42 -39 41 -39 42 -79 30 -84 -25 -198 -2 -216 44 -5 13 -14 15 -44 10 -26 -4 -45 -1 -58 9 -10 8 -29 15 -42 15 -17 0 -27 10 -37 34 -18 43 -28 49 -65 41 -35 -8 -38 -29 -10 -65 11 -14 20 -33 20 -42 0 -23 90 -98 118 -98 13 0 37 9 53 21 l29 20 12 -25 c6 -14 18 -26 26 -26 8 0 30 -12 49 -26 l33 -25 -30 -37 c-16 -20 -30 -43 -30 -50 0 -7 -15 -28 -33 -47 -24 -25 -41 -34 -65 -33 -33 1 -62 -16 -62 -37 0 -7 -15 -16 -32 -19 -18 -4 -58 -22 -88 -41 -30 -19 -65 -35 -77 -35 -29 0 -47 41 -39 90 6 38 -1 52 -65 131 -19 24 -41 64 -49 89 -7 25 -28 59 -47 77 -18 18 -33 40 -33 49 0 26 -40 64 -67 64 -17 0 -27 9 -38 37 -17 40 -14 63 8 63 18 0 38 62 40 125 l2 50 -107 0 c-99 0 -109 2 -130 23 -13 13 -32 29 -43 37 -19 14 -19 14 -1 15 14 0 17 6 14 25 -5 23 -2 25 33 25 24 0 41 6 47 16 10 18 61 20 201 9 l94 -8 -5 32 c-4 26 -1 31 16 31 12 0 30 -7 40 -15 11 -8 30 -15 42 -15 12 0 35 -7 50 -15 16 -8 39 -15 50 -15 29 0 51 -27 36 -42 -7 -7 -12 -24 -12 -40 0 -22 9 -32 43 -53 57 -33 94 -33 109 0 9 21 7 30 -15 63 -32 45 -33 51 -10 67 17 12 17 14 -1 34 -11 12 -26 21 -34 21 -8 0 -30 15 -48 34 l-32 33 23 13 c26 14 39 36 29 52 -4 6 -28 8 -55 6 -37 -4 -49 -2 -49 9 0 7 -9 21 -20 30 -21 18 -28 39 -9 28 5 -4 19 1 30 11 11 10 35 23 52 29 22 7 33 17 35 33 4 26 8 26 42 7 31 -18 72 -19 88 -3 14 14 16 77 2 98 -7 12 -14 12 -44 2 -27 -10 -41 -10 -56 -2 -25 13 -22 33 6 39 10 2 25 8 32 13 14 12 16 54 3 63 -6 3 -13 27 -16 53 -4 26 -10 56 -15 67 -4 11 -13 40 -20 64 -10 39 -10 45 9 65 12 12 21 27 21 33 0 6 9 13 20 16 28 7 25 35 -5 49 -29 13 -30 16 -10 45 21 29 41 20 66 -29 23 -45 65 -88 85 -88 8 0 14 2 14 4 0 2 2 11 5 18 3 8 -8 29 -25 46 -16 18 -30 35 -30 40 0 4 18 6 40 4 26 -3 47 1 58 10 9 8 29 19 45 26 17 7 27 19 27 32 0 18 6 20 88 20 66 1 95 5 122 20 43 24 91 25 131 4z m1761 -939 c15 -20 7 -46 -17 -57 -37 -16 -40 -42 -10 -86 19 -29 24 -47 20 -65 -4 -16 -1 -39 9 -58 9 -18 13 -36 9 -39 -5 -3 -35 -14 -68 -24 -71 -21 -90 -37 -106 -83 -11 -36 -32 -40 -37 -7 -2 10 -15 28 -28 40 l-25 21 26 31 c16 19 40 34 61 38 19 3 39 15 45 26 6 10 21 23 35 28 16 6 24 17 24 33 0 26 -34 102 -50 112 -5 3 -10 28 -10 54 l0 49 58 -2 c31 0 60 -5 64 -11z m-332 -914 c5 -48 25 -81 50 -81 4 0 15 -17 24 -37 21 -48 45 -89 74 -130 27 -38 27 -38 1 -64 -20 -20 -23 -20 -31 -5 -5 9 -22 16 -39 16 -28 0 -30 2 -25 28 4 17 1 35 -8 47 -9 11 -16 32 -16 46 0 15 -7 32 -15 39 -8 7 -15 22 -15 35 0 12 -9 30 -20 40 -13 12 -20 31 -20 56 0 84 32 92 40 10z m-79 -340 c21 -17 22 -22 12 -40 -16 -25 -17 -60 -3 -96 8 -21 6 -30 -10 -47 -11 -12 -20 -28 -20 -35 0 -8 -10 -31 -22 -53 -20 -35 -26 -38 -53 -33 -80 16 -99 28 -127 83 -32 61 -25 90 20 90 30 0 146 96 157 130 8 25 17 25 46 1z m-584 -52 c16 -17 57 -54 92 -83 34 -28 71 -67 81 -87 10 -19 26 -41 34 -48 11 -9 16 -30 16 -61 0 -45 -1 -47 -25 -42 -27 5 -95 74 -95 96 0 7 -12 31 -27 52 -16 22 -37 57 -48 78 -11 21 -37 55 -57 74 -21 20 -38 40 -38 44 0 20 42 5 67 -23z m491 -391 l33 -29 107 6 c73 4 102 2 92 -5 -8 -5 -25 -10 -37 -10 -12 0 -29 -7 -38 -16 -13 -13 -21 -14 -38 -5 -12 6 -35 11 -52 11 -42 -1 -108 11 -121 21 -6 5 -40 12 -75 15 -66 6 -139 31 -139 47 0 5 49 6 118 2 110 -7 119 -9 150 -37z"
       id="path4"
       style="fill:#ffffff;fill-opacity:1" />
  </g>
</svg>
