<?xml version="1.0" encoding="UTF-8" standalone="no"?>
<svg
   xmlns:dc="http://purl.org/dc/elements/1.1/"
   xmlns:cc="http://creativecommons.org/ns#"
   xmlns:rdf="http://www.w3.org/1999/02/22-rdf-syntax-ns#"
   xmlns:svg="http://www.w3.org/2000/svg"
   xmlns="http://www.w3.org/2000/svg"
   xmlns:sodipodi="http://sodipodi.sourceforge.net/DTD/sodipodi-0.dtd"
   xmlns:inkscape="http://www.inkscape.org/namespaces/inkscape"
   version="1.0"
   width="439.000000pt"
   height="439.000000pt"
   viewBox="0 0 439.000000 439.000000"
   preserveAspectRatio="xMidYMid meet"
   id="svg8"
   sodipodi:docname="europe.svg"
   inkscape:version="0.92.4 (5da689c313, 2019-01-14)">
  <defs
     id="defs12" />
  <sodipodi:namedview
     pagecolor="#ffffff"
     bordercolor="#666666"
     borderopacity="1"
     objecttolerance="10"
     gridtolerance="10"
     guidetolerance="10"
     inkscape:pageopacity="0"
     inkscape:pageshadow="2"
     inkscape:window-width="988"
     inkscape:window-height="671"
     id="namedview10"
     showgrid="false"
     inkscape:zoom="0.40318907"
     inkscape:cx="292.66667"
     inkscape:cy="292.66667"
     inkscape:window-x="0"
     inkscape:window-y="0"
     inkscape:window-maximized="0"
     inkscape:current-layer="svg8" />
  <metadata
     id="metadata2">
<rdf:RDF>
  <cc:Work
     rdf:about="">
    <dc:format>image/svg+xml</dc:format>
    <dc:type
       rdf:resource="http://purl.org/dc/dcmitype/StillImage" />
    <dc:title></dc:title>
  </cc:Work>
</rdf:RDF>
</metadata>
  <g
     transform="translate(0.000000,439.000000) scale(0.100000,-0.100000)"
     fill="#000000"
     stroke="none"
     id="g6"
     style="fill:#ffffff;fill-opacity:1">
    <path
       d="M1855 4370 c-231 -35 -406 -90 -620 -195 -161 -79 -318 -177 -429 -269 -38 -31 -99 -77 -135 -101 -85 -57 -153 -127 -185 -192 -15 -28 -64 -107 -109 -175 -194 -287 -309 -581 -357 -910 -22 -150 -27 -454 -10 -598 67 -548 347 -1068 761 -1411 434 -361 948 -537 1504 -516 348 13 645 91 935 243 584 308 1009 869 1134 1496 149 744 -71 1486 -594 2008 -352 352 -799 570 -1290 630 -137 16 -467 11 -605 -10z m688 -996 c16 17 18 17 42 -2 l25 -20 -30 -12 c-56 -23 -30 -60 42 -60 42 0 50 -3 60 -25 13 -28 10 -27 60 -30 35 -2 101 -44 131 -83 6 -10 28 -26 47 -36 59 -32 66 -42 65 -90 -2 -50 -20 -77 -66 -96 -26 -11 -37 -8 -116 31 -49 24 -89 47 -91 51 -6 13 -30 9 -36 -7 -3 -9 9 -26 33 -46 37 -29 39 -33 43 -101 3 -56 8 -74 22 -82 11 -6 26 -19 35 -28 9 -10 30 -18 48 -18 26 0 33 4 33 20 0 12 -10 25 -25 32 -14 6 -25 19 -25 30 0 23 7 23 55 -7 49 -30 75 -32 75 -6 0 11 -4 23 -10 26 -5 3 -10 20 -10 36 0 22 6 32 23 38 13 5 31 21 41 35 l17 27 26 -21 c14 -11 29 -17 34 -14 5 3 8 57 6 120 -2 63 -1 114 2 114 26 -1 50 -16 60 -36 9 -22 8 -28 -14 -48 -30 -28 -30 -34 -5 -64 32 -39 70 -27 99 31 13 26 29 47 35 47 6 0 30 14 54 30 24 16 50 26 58 23 7 -3 17 2 20 11 10 25 25 19 18 -8 -4 -19 -1 -26 16 -31 17 -6 28 -1 45 21 18 23 27 26 52 21 26 -5 34 -2 48 19 19 29 35 23 35 -12 0 -31 25 -32 51 -1 14 17 17 32 12 70 l-6 47 35 0 c50 0 116 -32 166 -80 34 -33 42 -48 42 -76 0 -32 -35 -115 -52 -122 -4 -2 -12 -20 -18 -41 -22 -82 -125 -203 -210 -246 -69 -35 -76 -47 -61 -105 10 -41 10 -55 -3 -94 -9 -26 -16 -57 -16 -71 0 -24 -23 -140 -40 -205 -7 -24 -25 -47 -61 -75 l-51 -40 4 -57 c3 -34 11 -65 20 -75 28 -31 31 -68 10 -116 -20 -45 -22 -46 -143 -100 -50 -23 -62 -41 -62 -93 0 -32 6 -51 21 -67 l22 -23 -31 -30 c-17 -16 -37 -42 -45 -57 -13 -25 -13 -32 1 -59 8 -17 15 -37 15 -45 0 -26 49 -121 67 -132 15 -9 16 -10 2 -11 -11 0 -19 -14 -25 -42 -8 -39 -14 -45 -66 -70 -51 -24 -63 -26 -105 -19 -26 5 -52 6 -58 1 -5 -4 -23 -9 -40 -11 -16 -2 -36 -8 -43 -13 -7 -5 -39 -8 -72 -7 -47 2 -60 -2 -68 -16 -9 -14 -12 -15 -26 -4 -14 12 -23 12 -56 1 -33 -11 -47 -11 -79 0 -24 8 -56 10 -81 6 -33 -5 -42 -3 -47 11 -3 10 -16 29 -29 43 -12 14 -24 41 -26 60 -3 30 0 35 19 38 13 2 35 18 50 36 22 26 40 35 87 44 56 11 62 11 102 -13 24 -14 46 -30 49 -35 8 -13 92 -13 100 0 3 5 12 7 20 3 9 -3 21 0 29 6 7 6 15 8 19 5 3 -3 22 2 41 11 25 12 35 23 32 34 -3 9 -8 28 -12 44 -3 15 -10 27 -15 27 -5 0 -32 18 -60 40 -28 22 -58 44 -67 49 -16 9 -16 11 1 23 10 7 19 26 21 41 1 15 7 28 12 28 5 0 15 6 22 12 11 8 9 13 -9 22 -17 10 -27 9 -48 -1 -14 -8 -41 -17 -58 -20 -18 -3 -33 -10 -33 -15 0 -5 -7 -9 -15 -9 -19 0 -19 -4 0 -39 13 -26 13 -30 0 -41 -12 -10 -18 -8 -34 11 -17 21 -18 26 -5 40 21 23 17 29 -16 29 -20 0 -30 5 -30 15 0 24 -26 18 -63 -15 -27 -23 -33 -35 -29 -55 3 -18 0 -25 -12 -25 -9 0 -18 -11 -21 -27 -4 -16 -13 -39 -21 -53 -8 -14 -18 -32 -21 -42 -2 -9 -14 -19 -26 -22 -12 -3 -18 -8 -14 -12 3 -4 2 -15 -4 -25 -7 -14 -21 -19 -54 -19 -36 0 -45 -3 -45 -17 0 -14 -2 -15 -9 -4 -5 7 -14 10 -21 6 -18 -11 -2 -87 23 -107 12 -10 17 -18 10 -18 -6 0 -15 5 -18 10 -3 6 -16 10 -28 10 -36 0 -93 85 -82 121 7 22 -20 79 -38 79 -6 1 -28 14 -47 30 -19 17 -40 30 -47 30 -6 0 -21 21 -32 46 -11 25 -25 43 -31 39 -5 -3 -10 -1 -10 5 0 17 -24 22 -52 11 -25 -9 -25 -12 -15 -43 7 -19 20 -46 30 -61 10 -15 22 -38 27 -51 5 -14 23 -29 42 -36 41 -15 75 -57 59 -73 -14 -14 -15 -47 -1 -47 14 0 12 -13 -5 -36 -14 -18 -15 -18 -11 6 5 33 -23 71 -93 124 -31 24 -76 69 -100 100 -44 59 -76 72 -101 41 -35 -42 -67 -56 -109 -46 -37 8 -42 7 -57 -16 -8 -14 -14 -34 -11 -44 5 -19 -6 -32 -32 -36 -29 -4 -74 -61 -76 -95 -3 -41 -24 -88 -40 -88 -7 0 -20 -9 -30 -20 -9 -10 -42 -24 -72 -30 -51 -11 -56 -10 -74 9 -14 14 -27 19 -42 16 -20 -6 -24 -1 -36 44 -10 40 -10 65 -1 124 9 55 9 80 1 95 -14 27 -14 32 3 32 8 0 16 4 18 9 2 5 44 5 102 0 113 -11 121 -8 131 54 4 23 11 47 16 53 11 13 -3 58 -21 69 -6 4 -15 18 -20 31 -6 16 -20 27 -40 30 -39 8 -55 27 -36 43 9 8 21 8 40 1 39 -14 59 -3 54 31 -3 16 -1 29 4 29 4 0 8 -4 8 -10 0 -5 14 -10 30 -10 19 0 30 5 30 14 0 8 7 16 15 20 8 3 15 12 15 20 0 19 47 56 71 56 11 0 19 5 19 11 0 18 34 54 50 54 9 0 16 11 18 27 3 29 45 51 79 42 35 -9 44 34 25 112 -12 52 -13 69 -4 72 7 2 19 11 28 20 25 24 35 -4 18 -52 -15 -41 -10 -96 8 -96 5 0 16 -7 24 -15 12 -11 20 -12 35 -4 23 12 59 3 74 -18 10 -13 13 -13 24 1 8 9 21 16 31 16 9 0 29 9 43 20 30 24 35 25 58 4 20 -18 69 -12 69 8 0 6 8 16 17 23 13 10 16 25 14 59 -3 50 14 116 30 116 6 0 20 -12 33 -27 24 -28 46 -25 46 7 0 10 5 22 10 25 17 11 11 37 -15 61 -14 13 -25 27 -25 32 0 19 69 43 104 37 25 -5 48 0 85 17 56 25 65 38 25 38 -17 0 -28 6 -31 20 -4 17 -11 19 -52 14 -25 -3 -58 -15 -73 -25 -37 -26 -54 -24 -89 9 -25 24 -31 38 -37 97 -9 92 -5 115 19 115 12 0 19 7 19 18 0 10 25 46 55 79 50 55 54 63 48 97 -6 37 -4 36 -81 52 -25 5 -61 -28 -62 -55 0 -8 -8 -23 -17 -33 -12 -14 -14 -21 -5 -30 13 -13 -9 -49 -74 -117 -74 -77 -84 -177 -23 -231 28 -24 31 -31 20 -44 -9 -10 -22 -13 -42 -9 -30 6 -38 -4 -18 -24 8 -8 7 -17 -4 -34 -8 -13 -17 -52 -21 -87 -7 -73 -13 -87 -41 -87 -11 0 -24 -10 -30 -23 -10 -22 -40 -27 -38 -7 1 6 -3 15 -8 22 -7 7 -6 14 1 18 7 4 3 16 -10 35 -11 15 -20 39 -20 52 0 12 -6 35 -14 49 -7 14 -16 37 -20 52 -9 38 -25 34 -70 -18 -24 -27 -48 -45 -61 -45 -30 0 -56 31 -48 58 3 12 1 22 -5 22 -7 0 -8 11 -1 32 9 32 4 68 -9 68 -9 0 -9 67 1 76 4 4 7 15 7 25 0 10 13 25 30 34 17 9 30 20 30 25 0 6 7 10 15 10 9 0 18 7 21 15 4 8 12 15 18 15 7 0 18 11 24 24 6 14 26 42 45 63 35 40 73 111 63 120 -3 3 3 18 12 32 10 14 19 37 20 50 0 14 8 29 17 33 8 5 15 18 15 29 0 12 8 23 20 26 11 3 20 13 20 23 0 10 8 20 18 22 11 3 22 23 31 56 7 29 17 52 22 52 5 0 9 7 9 15 0 10 10 15 30 15 18 0 33 6 36 15 4 8 12 15 19 15 8 0 17 9 20 20 3 11 15 20 25 20 10 0 22 5 25 10 3 6 15 10 25 10 12 0 22 9 26 24 3 14 15 33 26 43 20 18 21 18 16 -14 -3 -23 -1 -33 9 -33 8 0 16 6 19 14 3 8 12 12 21 9 14 -5 34 15 39 40 4 21 7 19 13 -7 6 -28 7 -29 24 -12z m-1146 -1092 c-29 -32 -22 -52 18 -52 19 0 35 -2 35 -5 0 -13 -36 -85 -42 -85 -20 0 -5 -18 20 -23 22 -5 34 -20 65 -85 20 -44 37 -87 37 -96 0 -12 7 -16 28 -14 22 2 26 -1 24 -17 -2 -11 -10 -27 -18 -36 -16 -18 -19 -33 -4 -24 6 3 7 -1 4 -9 -3 -9 -11 -16 -18 -17 -6 0 -33 -1 -61 -2 -27 -2 -60 -8 -72 -15 -28 -16 -46 -15 -41 1 3 6 18 14 34 17 17 3 30 12 32 22 3 14 -6 19 -39 24 -42 7 -42 7 -19 24 16 12 20 23 16 37 -5 16 -1 22 20 27 22 6 25 11 19 29 -4 12 -7 37 -7 55 1 32 0 32 -33 26 l-34 -6 6 35 c3 20 1 37 -6 41 -6 4 -11 16 -11 27 0 10 -4 19 -10 19 -11 0 -1 63 12 68 4 2 8 12 8 21 0 23 9 31 33 31 19 0 19 -1 4 -18z m-83 -220 c3 -4 2 -43 -1 -85 -6 -73 -7 -77 -29 -77 -13 0 -24 -3 -24 -8 0 -4 -14 -13 -31 -21 -44 -19 -56 -3 -30 40 24 39 27 59 8 59 -7 0 -14 11 -15 24 -1 20 4 25 26 28 15 2 28 10 28 18 1 8 2 18 3 23 1 10 59 9 65 -1z"
       id="path4"
       style="fill:#ffffff;fill-opacity:1" />
  </g>
</svg>
