<?xml version="1.0" encoding="UTF-8" standalone="no"?>
<svg
  xmlns:dc="http://purl.org/dc/elements/1.1/"
  xmlns:cc="http://creativecommons.org/ns#"
  xmlns:rdf="http://www.w3.org/1999/02/22-rdf-syntax-ns#"
  xmlns:sodipodi="http://sodipodi.sourceforge.net/DTD/sodipodi-0.dtd"
  xmlns:inkscape="http://www.inkscape.org/namespaces/inkscape"
  xmlns="http://www.w3.org/2000/svg"
  version="1.1"
  width="24"
  height="24"
  viewBox="0 0 24 24"
  id="svg827"
  sodipodi:docname="home.svg"
  inkscape:version="0.92.4 (5da689c313, 2019-01-14)">
  <metadata
    id="metadata833">
    <rdf:RDF>
      <cc:Work
        rdf:about="">
        <dc:format>image/svg+xml</dc:format>
        <dc:type
          rdf:resource="http://purl.org/dc/dcmitype/StillImage"/>
        <dc:title></dc:title>
      </cc:Work>
    </rdf:RDF>
  </metadata>
  <defs
    id="defs831"/>
  <sodipodi:namedview
    pagecolor="#ffffff"
    bordercolor="#666666"
    borderopacity="1"
    objecttolerance="10"
    gridtolerance="10"
    guidetolerance="10"
    inkscape:pageopacity="0"
    inkscape:pageshadow="2"
    inkscape:window-width="1920"
    inkscape:window-height="1017"
    id="namedview829"
    showgrid="false"
    inkscape:zoom="9.8333333"
    inkscape:cx="12"
    inkscape:cy="12"
    inkscape:window-x="-8"
    inkscape:window-y="-8"
    inkscape:window-maximized="1"
    inkscape:current-layer="svg827"/>
  <path
    d="M 20.32808,3.6719194 C 18.14888,1.3984831 15.133337,0.17341902 12,0.22053686 8.8666627,0.17341902 5.8628996,1.3984831 3.6836989,3.6719194 1.3984831,5.8511201 0.17341902,8.8666627 0.22053686,12 0.17341902,15.133337 1.3984831,18.137101 3.6719194,20.316301 5.8511201,22.601517 8.8666627,23.826581 12,23.779463 15.133337,23.826583 18.137101,22.601517 20.316301,20.32808 22.601517,18.14888 23.826581,15.133337 23.779463,12 23.826583,8.8666627 22.601517,5.8511201 20.32808,3.6719194 M 17.889731,12 v 7.067678 H 13.766919 V 13.177947 H 10.23308 v 5.889731 H 6.1102683 V 12 H 3.7543757 L 12,3.7543757 20.834597,12 Z"
    id="path825"
    inkscape:connector-curvature="0"
    style="stroke-width:1.17794633"/>
</svg>
