<?xml version="1.0" encoding="UTF-8" standalone="no"?>
<svg
   xmlns:dc="http://purl.org/dc/elements/1.1/"
   xmlns:cc="http://creativecommons.org/ns#"
   xmlns:rdf="http://www.w3.org/1999/02/22-rdf-syntax-ns#"
   xmlns:svg="http://www.w3.org/2000/svg"
   xmlns="http://www.w3.org/2000/svg"
   xmlns:sodipodi="http://sodipodi.sourceforge.net/DTD/sodipodi-0.dtd"
   xmlns:inkscape="http://www.inkscape.org/namespaces/inkscape"
   version="1.0"
   width="439.000000pt"
   height="439.000000pt"
   viewBox="0 0 439.000000 439.000000"
   preserveAspectRatio="xMidYMid meet"
   id="svg8"
   sodipodi:docname="oceania.svg"
   inkscape:version="0.92.4 (5da689c313, 2019-01-14)">
  <defs
     id="defs12" />
  <sodipodi:namedview
     pagecolor="#ffffff"
     bordercolor="#666666"
     borderopacity="1"
     objecttolerance="10"
     gridtolerance="10"
     guidetolerance="10"
     inkscape:pageopacity="0"
     inkscape:pageshadow="2"
     inkscape:window-width="716"
     inkscape:window-height="480"
     id="namedview10"
     showgrid="false"
     inkscape:zoom="0.40318907"
     inkscape:cx="292.66667"
     inkscape:cy="-229.79088"
     inkscape:window-x="0"
     inkscape:window-y="0"
     inkscape:window-maximized="0"
     inkscape:current-layer="svg8" />
  <metadata
     id="metadata2">
Created by potrace 1.15, written by Peter Selinger 2001-2017
<rdf:RDF>
  <cc:Work
     rdf:about="">
    <dc:format>image/svg+xml</dc:format>
    <dc:type
       rdf:resource="http://purl.org/dc/dcmitype/StillImage" />
    <dc:title></dc:title>
  </cc:Work>
</rdf:RDF>
</metadata>
  <g
     transform="translate(0.000000,439.000000) scale(0.100000,-0.100000)"
     fill="#000000"
     stroke="none"
     id="g6"
     style="fill:#ffffff;fill-opacity:1">
    <path
       d="M1855 4370 c-231 -35 -406 -90 -620 -195 -161 -79 -318 -177 -429 -269 -38 -31 -99 -77 -135 -101 -85 -57 -153 -127 -185 -192 -15 -28 -64 -107 -109 -175 -194 -287 -309 -581 -357 -910 -22 -150 -27 -454 -10 -598 67 -548 347 -1068 761 -1411 434 -361 948 -537 1504 -516 348 13 645 91 935 243 584 308 1009 869 1134 1496 149 744 -71 1486 -594 2008 -352 352 -799 570 -1290 630 -137 16 -467 11 -605 -10z m-1419 -955 c10 -8 31 -15 46 -15 19 0 45 -18 89 -60 35 -32 76 -62 91 -65 15 -4 28 -11 28 -16 0 -5 6 -9 14 -9 8 0 16 -5 18 -11 2 -6 23 -11 46 -11 35 1 43 -2 40 -16 -1 -9 1 -23 6 -30 4 -7 3 -19 -4 -27 -12 -15 -5 -55 11 -55 5 0 9 5 9 10 0 19 39 10 45 -10 7 -21 12 -23 55 -24 18 -1 25 -7 25 -21 0 -13 -5 -19 -15 -16 -20 5 -59 3 -71 -5 -14 -8 -11 -94 4 -95 6 -1 19 -3 27 -4 15 -1 38 -9 75 -26 11 -5 49 -8 85 -8 94 0 112 -1 138 -6 33 -8 27 -25 -10 -27 l-33 -1 33 -4 c17 -2 32 -8 32 -13 0 -5 8 -9 18 -9 18 -1 82 -1 122 -1 14 0 90 0 169 -1 94 0 146 4 151 11 3 6 23 13 44 15 33 5 37 3 31 -14 -5 -16 -2 -19 17 -15 13 3 -2 -8 -33 -24 -31 -16 -69 -38 -84 -50 -15 -12 -36 -22 -46 -22 -11 0 -19 -4 -19 -10 0 -5 -10 -10 -22 -10 l-22 0 22 20 c12 12 22 25 22 31 0 5 15 18 33 30 l32 20 -35 -6 c-85 -15 -334 -22 -395 -11 -22 4 -72 11 -111 16 -38 5 -83 14 -99 20 -15 6 -35 10 -44 9 -27 -3 -101 13 -101 22 0 5 -9 9 -19 9 -29 0 -36 19 -15 36 18 14 17 15 -11 11 -25 -4 -40 4 -96 54 -44 39 -76 77 -93 112 -29 60 -60 94 -70 78 -8 -12 9 -44 47 -89 26 -31 34 -52 20 -52 -16 0 -84 86 -80 102 3 11 0 18 -9 18 -21 0 -17 31 6 37 18 5 18 7 5 34 -17 33 -51 55 -57 38 -4 -12 -61 12 -73 30 -12 20 15 21 36 0 15 -15 24 -18 32 -10 7 7 -5 25 -41 59 -32 29 -52 56 -52 70 0 26 9 28 36 7z m918 -61 c11 -4 13 -11 6 -29 -6 -15 -6 -27 0 -30 6 -4 10 -15 10 -25 0 -11 9 -24 21 -30 25 -14 20 -33 -12 -40 -18 -4 -25 -13 -27 -37 -2 -21 -10 -34 -23 -38 -10 -4 -19 -9 -20 -13 0 -4 -3 -18 -5 -32 -2 -14 -5 -36 -7 -50 -2 -21 -8 -24 -42 -27 -21 -1 -43 3 -46 9 -4 6 -15 13 -24 14 -9 1 -19 5 -22 8 -3 2 -17 0 -31 -5 -17 -6 -27 -6 -32 0 -3 6 -20 11 -37 13 -29 2 -33 6 -38 40 -7 40 -14 45 -33 26 -15 -15 -28 -2 -14 15 8 9 8 26 1 56 -8 35 -7 48 6 67 19 30 23 30 47 -1 15 -20 25 -24 46 -19 15 4 32 11 38 16 7 5 30 6 51 2 40 -6 41 -5 60 37 12 24 23 52 26 62 5 12 17 17 46 17 22 0 46 -3 55 -6z m316 -113 c0 -4 -9 -20 -21 -35 -20 -25 -22 -26 -103 -20 -71 6 -84 4 -89 -9 -9 -23 21 -51 38 -37 8 6 11 19 8 27 -5 13 -2 15 11 10 10 -4 22 -7 27 -7 6 0 8 -4 5 -8 -2 -4 7 -8 22 -7 22 0 27 -5 27 -25 0 -14 5 -28 10 -33 13 -9 -26 -4 -42 6 -29 18 -45 -20 -19 -43 8 -6 13 -17 10 -24 -3 -8 3 -16 14 -18 15 -4 17 -12 14 -42 -5 -42 -17 -53 -39 -34 -9 7 -19 13 -22 13 -3 0 -5 3 -4 8 2 4 -2 7 -7 7 -5 0 -10 9 -10 19 0 10 -7 22 -16 25 -13 5 -15 -2 -12 -46 2 -31 -1 -53 -7 -53 -6 0 -9 5 -9 12 1 7 -8 11 -20 10 -19 -2 -21 2 -18 41 2 32 -1 42 -13 42 -17 0 -20 36 -6 72 20 50 25 63 26 73 7 63 37 80 114 64 52 -11 62 -11 83 4 25 18 48 22 48 8z m250 -71 c0 -5 -4 -10 -10 -10 -5 0 -10 -5 -10 -10 0 -6 14 -3 32 6 26 14 37 14 69 4 30 -10 38 -19 43 -44 4 -17 15 -42 24 -54 l18 -24 17 26 c17 25 17 26 -7 32 -24 6 -42 31 -31 42 3 3 5 0 5 -6 0 -7 7 -12 16 -12 14 0 14 3 4 15 -17 20 -11 25 19 14 16 -6 21 -14 17 -25 -5 -14 -1 -15 28 -10 26 5 67 -5 172 -40 76 -25 150 -54 165 -65 15 -10 32 -19 38 -19 7 0 11 -7 9 -16 -2 -9 9 -21 30 -29 28 -12 32 -12 32 2 0 12 8 15 40 10 22 -3 43 -1 46 5 3 5 12 7 20 4 20 -8 53 14 47 31 -3 8 3 13 18 13 l24 0 -25 19 c-13 11 -28 17 -32 15 -4 -3 -8 0 -8 5 0 6 -9 11 -20 11 -11 0 -20 5 -20 11 0 10 56 6 68 -5 3 -3 11 -1 19 5 10 9 13 7 13 -8 0 -20 18 -43 33 -43 4 0 5 5 2 10 -3 6 -1 10 5 10 7 0 9 -7 6 -16 -3 -9 -6 -25 -6 -36 0 -13 -5 -18 -14 -15 -9 4 -17 -1 -21 -11 -12 -37 -133 -70 -150 -42 -3 6 -13 10 -21 10 -11 0 -13 -6 -9 -20 5 -16 2 -20 -15 -20 -21 0 -20 -3 11 -39 19 -22 40 -40 48 -40 8 -1 20 -9 27 -18 8 -11 13 -13 14 -5 0 17 14 15 40 -8 20 -18 21 -20 6 -35 -14 -15 -25 -15 -86 -5 -64 11 -73 16 -107 55 -24 27 -50 45 -70 50 -29 6 -34 3 -42 -18 -6 -14 -18 -30 -27 -35 -25 -14 -96 -3 -119 19 -17 15 -30 17 -73 12 -57 -6 -66 3 -32 37 23 23 24 30 8 65 -9 19 -27 30 -77 46 -36 11 -76 26 -88 34 -20 13 -22 13 -17 0 4 -8 2 -15 -4 -15 -21 0 -42 13 -42 25 0 7 -7 18 -15 25 -20 17 -19 30 3 31 16 1 16 2 0 6 -10 2 -18 8 -18 13 0 10 -60 34 -77 31 -7 -1 -13 3 -13 9 0 6 5 8 10 5 10 -6 14 7 11 33 -1 7 9 12 24 12 14 0 25 -4 25 -10z m460 -414 c0 -8 4 -16 8 -18 11 -4 52 -107 52 -129 0 -12 7 -19 19 -19 22 0 51 -35 51 -63 0 -10 6 -28 14 -40 8 -12 17 -39 20 -59 5 -26 13 -39 28 -44 12 -4 28 -13 36 -20 7 -8 22 -14 33 -14 12 0 19 -7 19 -19 0 -11 5 -23 10 -26 6 -3 10 -14 10 -24 0 -10 7 -18 15 -18 8 0 12 4 9 9 -3 4 0 8 5 8 6 0 11 -7 11 -15 0 -8 5 -15 10 -15 6 0 10 -7 10 -15 0 -22 68 -93 88 -91 11 0 16 -5 13 -14 -7 -27 -7 -65 1 -70 11 -9 12 -82 0 -125 -5 -22 -13 -52 -16 -67 -3 -14 -18 -41 -33 -58 -37 -44 -84 -138 -86 -172 -2 -24 -8 -30 -42 -39 -68 -17 -71 -19 -92 -39 -20 -18 -23 -18 -63 -3 -32 13 -46 14 -60 5 -12 -7 -29 -8 -51 -2 -19 5 -46 12 -60 14 -38 8 -79 44 -79 71 0 33 -26 52 -51 37 -21 -13 -79 -16 -79 -4 0 4 12 29 26 56 l26 49 -31 -22 c-18 -13 -28 -27 -24 -36 3 -8 0 -15 -7 -15 -23 0 -50 21 -50 40 0 11 -7 20 -16 20 -8 0 -12 5 -9 10 3 6 2 10 -4 10 -5 0 -12 8 -15 18 -7 21 -78 44 -136 45 -81 2 -245 -45 -276 -78 -19 -21 -28 -23 -86 -18 -54 4 -71 1 -115 -21 -60 -30 -99 -33 -147 -8 -38 18 -52 62 -20 62 13 0 15 8 11 38 -7 57 -66 207 -99 252 -18 25 -18 28 -2 70 9 25 19 63 23 85 5 33 10 40 29 41 13 1 37 11 53 23 16 12 42 24 58 26 15 2 49 10 75 19 26 9 54 16 62 16 22 0 74 61 74 86 0 26 26 50 63 59 15 4 27 14 27 22 0 12 24 38 65 71 21 17 72 12 90 -8 29 -32 48 -24 82 35 23 40 28 55 18 55 -17 0 -19 9 -6 29 5 7 13 11 18 8 5 -3 27 -2 49 3 24 6 40 6 42 0 2 -6 11 -10 20 -10 10 0 26 -7 36 -15 28 -21 44 -19 83 11 30 23 34 24 32 8 -1 -11 1 -27 5 -36 5 -10 1 -27 -10 -43 -12 -19 -13 -25 -4 -23 8 2 16 -5 18 -14 3 -14 -3 -18 -23 -18 -20 0 -26 -4 -23 -17 2 -10 12 -19 23 -21 11 -2 29 -12 40 -22 30 -26 65 -43 65 -30 0 5 7 10 15 10 8 0 15 -4 15 -10 0 -5 -5 -10 -11 -10 -6 0 -4 -7 5 -15 8 -8 19 -15 25 -15 22 0 44 67 49 145 2 44 8 85 13 91 5 7 10 28 11 48 1 33 18 54 18 22z m1235 -1047 c11 -3 28 -20 37 -39 13 -26 17 -30 18 -15 1 19 2 19 20 -4 11 -13 20 -29 20 -36 0 -19 26 -26 71 -19 45 7 45 7 22 -41 -10 -21 -22 -34 -30 -31 -8 3 -19 -8 -27 -27 -7 -18 -25 -43 -40 -56 -22 -21 -29 -23 -50 -13 -20 9 -24 8 -20 -1 2 -7 -9 -25 -25 -41 -16 -16 -27 -34 -25 -41 3 -8 -8 -15 -31 -19 -29 -6 -38 -14 -51 -45 -10 -25 -27 -45 -49 -57 -30 -16 -39 -16 -90 -4 -31 7 -58 17 -61 22 -16 26 26 64 128 116 30 15 61 42 84 73 32 44 64 64 64 40 0 -12 73 -8 77 4 1 6 -12 18 -30 28 l-32 19 23 18 c30 25 28 60 -9 106 -41 52 -51 72 -43 86 5 8 10 6 18 -4 6 -9 20 -17 31 -19z m-990 -189 c12 -20 13 -95 2 -121 -13 -32 -59 -51 -92 -39 -14 5 -33 28 -45 51 -29 61 -26 110 6 80 10 -10 34 -14 82 -12 29 1 32 3 26 26 -6 25 9 35 21 15z"
       id="path4"
       style="fill:#ffffff;fill-opacity:1" />
  </g>
</svg>
